<svg width="31" height="30" viewBox="0 0 31 30" fill="none" xmlns="http://www.w3.org/2000/svg">
<path d="M16 30C7.71575 30 1.00002 23.2843 1.00002 15C1.00002 6.71573 7.71575 0 16 0C24.2843 0 31 6.71573 31 15C31 23.2843 24.2843 30 16 30Z" fill="url(#paint0_linear_330_4)"/>
<path d="M0.800049 16.304V13.296C0.800049 10.6293 1.01338 8.92264 1.44005 8.17597C1.86672 7.42931 2.77338 6.41598 4.16005 5.13598C5.56805 3.85598 6.61338 3.21598 7.29605 3.21598C8.46938 3.21598 9.81338 3.89864 11.328 5.26398C12.8427 6.60798 13.8027 8.09064 14.208 9.71198L10.656 12.176C10.3147 11.024 9.77072 9.96798 9.02405 9.00798C8.27738 8.02664 7.75472 7.53598 7.45605 7.53598C6.92272 7.53598 6.31472 8.05864 5.63205 9.10398C5.35472 9.50931 5.21605 10.9066 5.21605 13.296V16.304C5.21605 18.7573 5.35472 20.1546 5.63205 20.496C6.31472 21.5413 6.92272 22.064 7.45605 22.064C7.75472 22.064 8.27738 21.648 9.02405 20.816C9.77072 19.9626 10.3147 19.024 10.656 18L14.208 20.496C13.8027 21.968 12.8427 23.3226 11.328 24.56C9.81338 25.776 8.46938 26.384 7.29605 26.384C6.61338 26.384 5.56805 25.744 4.16005 24.464C2.77338 23.184 1.86672 22.1706 1.44005 21.424C1.01338 20.6773 0.800049 18.9706 0.800049 16.304Z" fill="url(#paint1_linear_330_4)"/>
<path d="M21.0725 4.97598C22.5232 3.80264 23.5365 3.21598 24.1125 3.21598C24.7099 3.21598 25.6485 3.78131 26.9285 4.91197C28.2299 6.02131 29.0405 6.81064 29.3605 7.27997C29.6805 7.72798 29.8405 8.47464 29.8405 9.51997C29.8405 10.5653 29.6805 11.3546 29.3605 11.888C29.0405 12.4 28.4539 13.0613 27.6005 13.872C28.9445 14.9813 29.8939 15.9093 30.4485 16.656C30.6832 17.04 30.8005 17.7653 30.8005 18.832C30.8005 19.8773 30.6832 20.56 30.4485 20.88C30.0645 21.712 29.1365 22.7786 27.6645 24.08C26.1925 25.36 25.0299 26 24.1765 26H17.5525V12.304C17.5525 10.576 17.4245 9.35998 17.1685 8.65597C16.9339 7.95197 16.4219 7.11998 15.6325 6.15998L19.8565 3.21598C20.3685 3.64264 20.7739 4.22931 21.0725 4.97598ZM21.9685 16.272V22.128H24.1765C24.4539 22.128 24.7952 21.9146 25.2005 21.488C25.6059 21.04 25.8939 20.656 26.0645 20.336C26.2565 19.9946 26.3525 19.312 26.3525 18.288C26.3525 17.584 25.8192 16.912 24.7525 16.272H21.9685ZM21.9685 10.448V12.72H23.6005C23.8352 12.72 24.1232 12.5173 24.4645 12.112C24.8272 11.6853 25.0725 11.312 25.2005 10.992C25.3285 10.672 25.3925 10.288 25.3925 9.83998C25.3925 9.39198 25.1792 8.89064 24.7525 8.33597C24.3259 7.75997 23.9312 7.47197 23.5685 7.47197C23.2059 7.47197 22.6405 7.61064 21.8725 7.88797C21.9365 8.71998 21.9685 9.57331 21.9685 10.448Z" fill="url(#paint2_linear_330_4)"/>
<defs>
<linearGradient id="paint0_linear_330_4" x1="15.9" y1="0" x2="15.9" y2="30" gradientUnits="userSpaceOnUse">
<stop stop-color="#313130" stop-opacity="0.35"/>
<stop offset="1" stop-color="#313130" stop-opacity="0.49"/>
</linearGradient>
<linearGradient id="paint1_linear_330_4" x1="16.5" y1="-1" x2="16.5" y2="31" gradientUnits="userSpaceOnUse">
<stop stop-color="#003675"/>
<stop offset="0.661458" stop-color="#1E6ECC"/>
</linearGradient>
<linearGradient id="paint2_linear_330_4" x1="16.5" y1="-1" x2="16.5" y2="31" gradientUnits="userSpaceOnUse">
<stop stop-color="#003675"/>
<stop offset="0.661458" stop-color="#1E6ECC"/>
</linearGradient>
</defs>
</svg>
