<svg width="299" height="40" viewBox="0 0 299 40" fill="none" xmlns="http://www.w3.org/2000/svg">
<path d="M15.704 4.91999C17.784 4.91999 19.624 5.22399 21.224 5.83199C22.856 6.43999 24.392 7.35199 25.832 8.56799L22.088 13.032C21.096 12.264 20.12 11.688 19.16 11.304C18.2 10.92 17.176 10.728 16.088 10.728C13.848 10.728 12.072 11.672 10.76 13.56C9.47999 15.448 8.83998 18.36 8.83998 22.296C8.83998 26.168 9.47999 29.048 10.76 30.936C12.072 32.792 13.88 33.72 16.184 33.72C17.4 33.72 18.504 33.496 19.496 33.048C20.488 32.568 21.56 31.896 22.712 31.032L26.216 35.544C24.968 36.792 23.448 37.816 21.656 38.616C19.896 39.416 17.944 39.816 15.8 39.816C12.728 39.816 10.056 39.144 7.78399 37.8C5.51198 36.456 3.73598 34.472 2.45598 31.848C1.20798 29.192 0.583984 26.008 0.583984 22.296C0.583984 18.68 1.22398 15.56 2.50398 12.936C3.81598 10.312 5.60798 8.32799 7.87998 6.98399C10.184 5.60799 12.792 4.91999 15.704 4.91999Z" fill="#141414"/>
<path d="M49.3726 31.608C49.3726 32.568 49.5006 33.272 49.7566 33.72C50.0446 34.168 50.4926 34.504 51.1006 34.728L49.5166 39.672C47.9486 39.544 46.6686 39.208 45.6766 38.664C44.6846 38.088 43.9166 37.192 43.3726 35.976C41.7086 38.536 39.1486 39.816 35.6926 39.816C33.1646 39.816 31.1486 39.08 29.6446 37.608C28.1406 36.136 27.3886 34.216 27.3886 31.848C27.3886 29.064 28.4126 26.936 30.4606 25.464C32.5086 23.992 35.4686 23.256 39.3406 23.256H41.9326V22.152C41.9326 20.648 41.6126 19.624 40.9726 19.08C40.3326 18.504 39.2126 18.216 37.6126 18.216C36.7806 18.216 35.7726 18.344 34.5886 18.6C33.4046 18.824 32.1886 19.144 30.9406 19.56L29.2126 14.568C30.8126 13.96 32.4446 13.496 34.1086 13.176C35.8046 12.856 37.3726 12.696 38.8126 12.696C42.4606 12.696 45.1326 13.448 46.8286 14.952C48.5246 16.456 49.3726 18.712 49.3726 21.72V31.608ZM37.9006 34.392C39.6286 34.392 40.9726 33.576 41.9326 31.944V27.432H40.0606C38.3326 27.432 37.0366 27.736 36.1726 28.344C35.3406 28.952 34.9246 29.896 34.9246 31.176C34.9246 32.2 35.1806 33 35.6926 33.576C36.2366 34.12 36.9726 34.392 37.9006 34.392Z" fill="#141414"/>
<path d="M62.9975 13.512V39H55.4135V13.512H62.9975ZM59.1575 0.071991C60.4695 0.071991 61.5415 0.487991 62.3735 1.31999C63.2375 2.11999 63.6695 3.14399 63.6695 4.39199C63.6695 5.63999 63.2375 6.67999 62.3735 7.51199C61.5415 8.31199 60.4695 8.71199 59.1575 8.71199C57.8455 8.71199 56.7735 8.31199 55.9415 7.51199C55.1095 6.67999 54.6935 5.63999 54.6935 4.39199C54.6935 3.14399 55.1095 2.11999 55.9415 1.31999C56.7735 0.487991 57.8455 0.071991 59.1575 0.071991Z" fill="#141414"/>
<path d="M80.0004 12.696C83.9044 12.696 86.9604 13.896 89.1684 16.296C91.3764 18.664 92.4804 21.992 92.4804 26.28C92.4804 29 91.9684 31.384 90.9444 33.432C89.9524 35.448 88.5124 37.016 86.6244 38.136C84.7684 39.256 82.5604 39.816 80.0004 39.816C76.1284 39.816 73.0724 38.632 70.8324 36.264C68.6244 33.864 67.5204 30.52 67.5204 26.232C67.5204 23.512 68.0164 21.144 69.0084 19.128C70.0324 17.08 71.4724 15.496 73.3284 14.376C75.2164 13.256 77.4404 12.696 80.0004 12.696ZM80.0004 18.264C78.4644 18.264 77.3124 18.92 76.5444 20.232C75.7764 21.512 75.3924 23.512 75.3924 26.232C75.3924 29.016 75.7604 31.048 76.4964 32.328C77.2644 33.608 78.4324 34.248 80.0004 34.248C81.5364 34.248 82.6884 33.608 83.4564 32.328C84.2244 31.016 84.6084 29 84.6084 26.28C84.6084 23.496 84.2244 21.464 83.4564 20.184C82.7204 18.904 81.5684 18.264 80.0004 18.264Z" fill="#141414"/>
<path d="M126.238 21.384C128.446 21.8 130.238 22.616 131.614 23.832C133.022 25.048 133.726 26.872 133.726 29.304C133.726 32.856 132.446 35.368 129.886 36.84C127.358 38.28 123.806 39 119.23 39H108.526V5.73599H117.934C122.606 5.73599 126.174 6.40799 128.638 7.75199C131.102 9.06399 132.334 11.224 132.334 14.232C132.334 16.184 131.742 17.768 130.558 18.984C129.406 20.168 127.966 20.968 126.238 21.384ZM116.398 11.304V19.032H119.326C122.654 19.032 124.318 17.688 124.318 15C124.318 13.656 123.87 12.712 122.974 12.168C122.078 11.592 120.654 11.304 118.702 11.304H116.398ZM119.278 33.288C121.358 33.288 122.926 32.984 123.982 32.376C125.07 31.736 125.614 30.568 125.614 28.872C125.614 25.8 123.694 24.264 119.854 24.264H116.398V33.288H119.278Z" fill="#141414"/>
<path d="M158.263 31.608C158.263 32.568 158.391 33.272 158.647 33.72C158.935 34.168 159.383 34.504 159.991 34.728L158.407 39.672C156.839 39.544 155.559 39.208 154.567 38.664C153.575 38.088 152.807 37.192 152.263 35.976C150.599 38.536 148.039 39.816 144.583 39.816C142.055 39.816 140.039 39.08 138.535 37.608C137.031 36.136 136.279 34.216 136.279 31.848C136.279 29.064 137.303 26.936 139.351 25.464C141.399 23.992 144.359 23.256 148.231 23.256H150.823V22.152C150.823 20.648 150.503 19.624 149.863 19.08C149.223 18.504 148.103 18.216 146.503 18.216C145.671 18.216 144.663 18.344 143.479 18.6C142.295 18.824 141.079 19.144 139.831 19.56L138.103 14.568C139.703 13.96 141.335 13.496 142.999 13.176C144.695 12.856 146.263 12.696 147.703 12.696C151.351 12.696 154.023 13.448 155.719 14.952C157.415 16.456 158.263 18.712 158.263 21.72V31.608ZM146.791 34.392C148.519 34.392 149.863 33.576 150.823 31.944V27.432H148.951C147.223 27.432 145.927 27.736 145.063 28.344C144.231 28.952 143.815 29.896 143.815 31.176C143.815 32.2 144.071 33 144.583 33.576C145.127 34.12 145.863 34.392 146.791 34.392Z" fill="#141414"/>
<path d="M170.603 39.816C168.395 39.816 166.667 39.192 165.419 37.944C164.203 36.664 163.595 34.856 163.595 32.52V3.38399L171.179 2.56799V32.232C171.179 33.288 171.611 33.816 172.475 33.816C172.923 33.816 173.339 33.736 173.723 33.576L175.211 38.952C173.835 39.528 172.299 39.816 170.603 39.816Z" fill="#141414"/>
<path d="M200.699 3.38399V39H193.979L193.595 36.024C191.803 38.552 189.387 39.816 186.347 39.816C183.179 39.816 180.763 38.6 179.099 36.168C177.467 33.736 176.651 30.408 176.651 26.184C176.651 23.592 177.083 21.272 177.947 19.224C178.811 17.176 180.027 15.576 181.595 14.424C183.195 13.272 185.019 12.696 187.067 12.696C189.499 12.696 191.515 13.496 193.115 15.096V2.56799L200.699 3.38399ZM188.699 34.248C190.459 34.248 191.931 33.288 193.115 31.368V20.376C192.507 19.64 191.883 19.096 191.243 18.744C190.635 18.392 189.931 18.216 189.131 18.216C187.723 18.216 186.603 18.872 185.771 20.184C184.939 21.496 184.523 23.512 184.523 26.232C184.523 29.208 184.875 31.288 185.579 32.472C186.315 33.656 187.355 34.248 188.699 34.248Z" fill="#141414"/>
<path d="M228.136 39H221.56L221.224 35.784C219.368 38.472 216.792 39.816 213.496 39.816C211.16 39.816 209.384 39.112 208.168 37.704C206.984 36.296 206.392 34.328 206.392 31.8V13.512H213.976V30.84C213.976 32.088 214.168 32.968 214.552 33.48C214.968 33.96 215.592 34.2 216.424 34.2C218.024 34.2 219.4 33.208 220.552 31.224V13.512H228.136V39Z" fill="#141414"/>
<path d="M241.685 13.512V39H234.101V13.512H241.685ZM237.845 0.071991C239.157 0.071991 240.229 0.487991 241.061 1.31999C241.925 2.11999 242.357 3.14399 242.357 4.39199C242.357 5.63999 241.925 6.67999 241.061 7.51199C240.229 8.31199 239.157 8.71199 237.845 8.71199C236.533 8.71199 235.461 8.31199 234.629 7.51199C233.797 6.67999 233.381 5.63999 233.381 4.39199C233.381 3.14399 233.797 2.11999 234.629 1.31999C235.461 0.487991 236.533 0.071991 237.845 0.071991Z" fill="#141414"/>
<path d="M262.576 12.696C264.784 12.696 266.512 13.368 267.76 14.712C269.008 16.056 269.632 17.944 269.632 20.376V39H262.048V21.672C262.048 20.392 261.84 19.512 261.424 19.032C261.04 18.52 260.448 18.264 259.648 18.264C258.112 18.264 256.64 19.368 255.232 21.576V39H247.648V13.512H254.272L254.8 16.536C255.888 15.256 257.056 14.296 258.304 13.656C259.584 13.016 261.008 12.696 262.576 12.696Z" fill="#141414"/>
<path d="M286.391 12.696C290.295 12.696 293.351 13.896 295.559 16.296C297.767 18.664 298.871 21.992 298.871 26.28C298.871 29 298.359 31.384 297.335 33.432C296.343 35.448 294.903 37.016 293.015 38.136C291.159 39.256 288.951 39.816 286.391 39.816C282.519 39.816 279.463 38.632 277.223 36.264C275.015 33.864 273.911 30.52 273.911 26.232C273.911 23.512 274.407 21.144 275.399 19.128C276.423 17.08 277.863 15.496 279.719 14.376C281.607 13.256 283.831 12.696 286.391 12.696ZM286.391 18.264C284.855 18.264 283.703 18.92 282.935 20.232C282.167 21.512 281.783 23.512 281.783 26.232C281.783 29.016 282.151 31.048 282.887 32.328C283.655 33.608 284.823 34.248 286.391 34.248C287.927 34.248 289.079 33.608 289.847 32.328C290.615 31.016 290.999 29 290.999 26.28C290.999 23.496 290.615 21.464 289.847 20.184C289.111 18.904 287.959 18.264 286.391 18.264Z" fill="#141414"/>
</svg>
